# xmcd
#
# Track frame offsets:
#	150
#	12982
#	21530
#	32444
#	41453
#	52785
#	60957
#	70638
#	79952
#	91114
#	102918
#	114539
#	126914
#	138306
#	151636
#	162269
#	173366
#	185276
#	195514
#	207536
#
# Disc length: 2926 seconds
#
# Revision: 0
# Processed by: cddbd v1.5.1PL0 Copyright (c) Steve Scherf et al.
# Submitted via: dBpowerAMP V4.0
#
DISCID=f30b6c14
DTITLE=Dee Clark - Raindrops
DYEAR=1900
DGENRE=R&B
TTITLE0=Raindrops
TTITLE1=Hey Little Girl
TTITLE2=Nobody But You
TTITLE3=Just Keep It Up
TTITLE4=How About That
TTITLE5=At My Front Door
TTITLE6=You're Looking Good
TTITLE7=Your Friends
TTITLE8=I'm Going Back To School
TTITLE9=Because I Love You
TTITLE10=(Don't) Walk Away From Me
TTITLE11=Shook Up Over You 
TTITLE12=I'm A Soldier Boy
TTITLE13=Blues Get Off My Shoulder
TTITLE14=Seven Nights
TTITLE15=Just Can't Help Myself
TTITLE16=When I Call On You
TTITLE17=Just Like A Fool
TTITLE18=Oh Little Girl
TTITLE19=Wondering
EXTD=
EXTT0=
EXTT1=
EXTT2=
EXTT3=
EXTT4=
EXTT5=
EXTT6=
EXTT7=
EXTT8=
EXTT9=
EXTT10=
EXTT11=
EXTT12=
EXTT13=
EXTT14=
EXTT15=
EXTT16=
EXTT17=
EXTT18=
EXTT19=
PLAYORDER=
